<svg width="200" height="31" viewBox="0 0 200 31" fill="none" xmlns="http://www.w3.org/2000/svg">
<g clip-path="url(#clip0_75_938)">
<path d="M107.858 17.8628H100.699C100.763 18.7502 100.983 19.5582 101.331 20.3264C102.118 22.0085 103.614 22.6443 105.369 22.4721C106.555 22.3529 107.613 21.8893 108.606 21.2403C108.684 21.1873 108.774 21.1343 108.864 21.0946C108.89 21.0946 108.916 21.0946 108.993 21.0946C108.955 21.2271 108.942 21.3463 108.89 21.4522C107.858 23.6641 106.181 24.9886 103.808 25.3728C102.028 25.6509 100.364 25.3065 98.8414 24.3396C97.2677 23.3463 96.3131 21.8761 95.9519 20.0218C95.6166 18.2867 95.6553 16.5781 96.3518 14.9357C97.4225 12.3926 99.4348 11.2006 102.04 10.9357C103.253 10.8165 104.453 10.9092 105.601 11.386C107.42 12.141 108.477 13.5847 108.955 15.4787C109.019 15.7569 109.084 16.035 109.122 16.3264C109.251 17.1211 108.645 17.8496 107.858 17.8496V17.8628ZM100.622 17.1741C102.002 16.8562 103.343 16.5648 104.672 16.2469C104.749 16.2337 104.853 16.088 104.853 16.0218C104.814 15.0946 104.762 14.1542 104.388 13.28C104.079 12.5913 103.614 12.1145 102.827 12.1012C102.04 12.088 101.499 12.5118 101.163 13.2138C100.57 14.4588 100.57 15.7834 100.622 17.1741Z" fill="#F05223"/>
<path d="M115.946 12.3522C115.946 12.5244 115.92 12.6304 115.92 12.7231C115.92 15.3456 115.92 17.9681 115.946 20.5906C115.946 21.8092 116.604 22.4714 117.791 22.4184C118.255 22.4052 118.72 22.2463 119.184 22.1403C119.3 22.1138 119.416 22.0476 119.622 21.9681C119.493 22.286 119.416 22.5244 119.3 22.7628C118.204 25.041 115.972 26.0343 113.792 25.2132C112.554 24.7496 111.909 23.7562 111.638 22.4979C111.509 21.9019 111.47 21.2794 111.457 20.6569C111.444 18.1006 111.457 15.531 111.457 12.9747V12.4052H109.471C109.471 12.0211 109.458 11.69 109.471 11.3588C109.471 11.2529 109.574 11.1204 109.664 11.0675C112.025 9.90189 114.037 8.27275 115.727 6.23302C115.753 6.20653 115.791 6.19328 115.895 6.12706V11.0675H119.532V12.3655H115.933L115.946 12.3522Z" fill="#F05223"/>
<path d="M5.61675 25.1464H0.908443C0.469861 25.1464 0.147374 24.7226 0.263469 24.2855C0.340866 23.9808 0.405363 23.6762 0.456961 23.3848C0.598855 22.5239 0.779448 21.6497 0.792347 20.7888C0.831046 16.9477 0.818146 13.0934 0.805247 9.25235C0.805247 8.00732 0.521459 6.80202 0.173173 5.60997C0.0699774 5.2656 0.302168 4.92123 0.637554 4.88149C3.11425 4.60335 5.26846 6.5901 5.26846 9.14639V13.2921C5.55225 12.961 5.74574 12.7358 5.96503 12.5106C7.51297 10.9477 9.33179 10.5239 11.3828 11.2126C12.9952 11.7557 14.053 13.3318 14.0917 15.1994C14.1175 16.6563 14.1304 18.1133 14.0917 19.557C14.053 21.0139 14.5819 23.7822 14.7754 24.7755C14.8141 24.9742 14.6722 25.1464 14.4787 25.1464H9.79617C9.33179 25.1464 8.98351 24.6961 9.0996 24.2325C9.177 23.8881 9.25439 23.557 9.31889 23.2126C9.44789 22.4444 9.60268 21.6762 9.62848 20.908C9.68008 19.2921 9.65428 17.6762 9.62848 16.0735C9.62848 14.9212 9.1254 14.1398 8.20954 13.8749C7.26788 13.5967 6.35202 13.7557 5.47485 14.206C5.38456 14.259 5.29426 14.4312 5.29426 14.5504C5.32006 17.0537 5.32006 19.557 5.43615 22.0603C5.46195 22.7226 5.78444 24.0471 5.95213 24.7358C6.00373 24.9477 5.84894 25.1596 5.62965 25.1596L5.61675 25.1464Z" fill="#F05223"/>
<path d="M30.0228 22.9482C30.2679 22.882 30.5001 23.1072 30.4485 23.3588C30.255 24.2065 29.5068 24.9615 28.5394 25.2529C26.8238 25.7562 25.5209 25.0939 24.5148 23.2396C24.1923 23.584 23.8827 23.9681 23.5344 24.286C21.5995 26.0079 17.7554 25.9019 16.4268 22.8953C15.3174 20.3787 16.4784 17.7032 19.1228 16.7761C20.7868 16.1933 22.4379 16.3522 24.0891 16.8423C24.1536 16.8555 24.2181 16.882 24.3342 16.9218C24.3084 15.5973 24.4374 14.3125 24.102 13.0675C23.8827 12.2595 23.4699 12.0211 22.7088 12.339C21.8962 12.6833 21.1093 13.0939 20.374 13.5973C19.8064 13.9814 18.9035 14.6701 18.194 15.2132C17.7683 15.5443 17.175 15.2264 17.175 14.6833V13.4648C17.175 12.5244 17.8199 11.7165 18.7229 11.5178C19.2002 11.4118 19.6904 11.3191 20.1805 11.2529C21.5092 11.0807 22.8636 10.9747 24.2052 10.9483C24.8243 10.935 25.4693 11.0939 26.0498 11.3059C27.7009 11.8886 28.6168 13.1469 28.7458 14.9085C28.849 16.3787 28.8103 17.8754 28.8232 19.3588C28.8232 20.1271 28.8232 20.882 28.849 21.6502C28.849 21.8886 28.9135 22.1403 28.978 22.3787C29.1199 22.829 29.5842 23.0939 30.0228 22.9615V22.9482ZM24.3084 17.743C23.7408 17.743 23.2119 17.7165 22.683 17.7694C21.8704 17.8357 21.148 18.3787 20.8642 19.1602C20.5159 20.1403 20.5804 21.0939 21.0964 21.9284C21.7801 23.041 23.3022 23.2794 24.2568 22.3787C24.2955 22.339 24.3342 22.2595 24.3342 22.2065C24.3471 20.8953 24.3342 19.584 24.3342 18.2728C24.3342 18.1138 24.3342 17.9681 24.3084 17.743Z" fill="#F05223"/>
<path d="M74.655 11.0816H72.0364C71.7784 11.0816 71.5849 11.32 71.6236 11.5849C71.7913 12.4856 72.0364 14.3664 71.5978 15.3333C71.2753 16.0485 71.0044 16.7902 70.7078 17.5187C70.3724 18.3664 70.0241 19.2141 69.6629 20.1015C69.5984 19.9955 69.5468 19.9425 69.521 19.8763C68.7857 18.2339 68.0376 16.5915 67.3152 14.9359C66.9927 14.2074 66.8895 13.3995 67.0314 12.618C67.083 12.3531 67.1346 12.1015 67.1991 11.8366C67.2894 11.4525 66.9927 11.0684 66.6057 11.0684H62.8649C61.7426 11.0684 61.0461 12.3134 61.6136 13.3068C61.7426 13.5452 61.8716 13.7703 61.949 13.9425C63.7549 17.7836 65.5093 21.6511 67.2765 25.5187C67.3152 25.6114 67.3539 25.7571 67.3152 25.8366C67.1088 26.3001 66.9282 26.8035 66.6315 27.2141C66.2316 27.7836 65.6641 27.9823 64.9675 27.8631C64.2193 27.7306 63.613 27.3333 63.0326 26.8697C62.7359 26.6313 62.465 26.3796 62.1941 26.128C62.0135 25.969 61.7426 25.9955 61.6007 26.1809C61.5233 26.2737 61.4459 26.3796 61.3814 26.4856C61.059 26.9359 60.7623 27.4127 60.5817 27.9425C60.4011 28.4723 60.3237 29.0419 60.5946 29.5452C60.7365 29.8101 60.9429 30.0088 61.2009 30.1412C61.4588 30.2737 61.7684 30.3531 62.0651 30.4326C63.0455 30.6843 64.0774 30.8564 65.0707 30.565C65.3803 30.4723 65.677 30.3399 65.9608 30.1677C66.8895 29.5982 67.47 28.7107 67.8828 27.7174C69.1856 24.5915 70.4627 21.4392 71.7397 18.3001C72.5524 16.3134 74.3067 12.7372 74.913 11.5054C75.0162 11.3068 74.8614 11.0684 74.655 11.0684V11.0816Z" fill="#F05223"/>
<path d="M32.2156 11.1474L35.5307 10.7633C35.9177 10.7235 36.2531 11.0282 36.2531 11.4255V12.8427C36.2531 12.8427 36.3563 12.9222 36.4079 12.9487C36.4337 12.8692 36.4466 12.7765 36.4853 12.7103C38.6395 10.0745 42.5738 10.3262 44.3927 13.2401C45.4375 14.9089 45.6697 16.7765 45.5665 18.7103C45.4633 20.4189 45.0376 22.0215 43.967 23.399C42.0063 25.8891 38.575 26.1407 36.4724 23.8891C36.4337 23.8493 36.395 23.8229 36.3305 23.7699C36.3305 24.9487 36.2402 26.101 36.3563 27.2533L36.4337 28.048C36.5756 29.4652 35.492 30.6838 34.1118 30.6838H31.5577C31.2997 30.6838 31.1062 30.4321 31.1707 30.1672C31.3126 29.6374 31.4416 29.0944 31.5319 28.5513C31.6609 27.7566 31.7899 26.9619 31.7899 26.154C31.8157 22.6705 31.7899 19.1871 31.8028 15.7037C31.8028 14.9089 31.5061 13.5182 31.261 12.5116C31.1062 11.8493 31.5448 11.2003 32.2027 11.1209L32.2156 11.1474ZM36.266 18.3924C36.266 19.6772 36.266 20.9487 36.266 22.2335C36.266 22.3791 36.3305 22.6043 36.4337 22.6705C36.9626 23.0149 37.543 23.2136 38.188 23.1474C39.3361 23.0282 39.9423 22.2467 40.2777 21.2268C40.8582 19.452 40.8969 17.6507 40.497 15.8229C40.4583 15.6507 40.4067 15.4917 40.3551 15.3328C39.6844 13.5182 38.1364 12.9884 36.5369 14.048C36.395 14.1407 36.266 14.3791 36.266 14.5513C36.2402 15.8361 36.266 17.1076 36.266 18.3924Z" fill="#F05223"/>
<path d="M47.6824 11.1474L50.9975 10.7633C51.3845 10.7235 51.7199 11.0282 51.7199 11.4255V12.8427C51.7199 12.8427 51.8231 12.9222 51.8747 12.9487C51.9005 12.8692 51.9134 12.7765 51.9521 12.7103C54.1063 10.0745 58.0406 10.3262 59.8594 13.2401C60.9043 14.9089 61.1365 16.7765 61.0333 18.7103C60.9301 20.4189 60.5044 22.0215 59.4338 23.399C57.4731 25.8891 54.0418 26.1407 51.9392 23.8891C51.9005 23.8493 51.8618 23.8229 51.7973 23.7699C51.7973 24.9487 51.707 26.101 51.8231 27.2533L51.9005 28.048C52.0424 29.4652 50.9588 30.6838 49.5786 30.6838H47.0245C46.7665 30.6838 46.573 30.4321 46.6375 30.1672C46.7794 29.6374 46.9084 29.0944 46.9987 28.5513C47.1277 27.7566 47.2567 26.9619 47.2567 26.154C47.2825 22.6705 47.2567 19.1871 47.2696 15.7037C47.2696 14.9089 46.9729 13.5182 46.7278 12.5116C46.573 11.8493 47.0116 11.2003 47.6695 11.1209L47.6824 11.1474ZM51.7328 18.3924C51.7328 19.6772 51.7328 20.9487 51.7328 22.2335C51.7328 22.3791 51.7973 22.6043 51.9005 22.6705C52.4294 23.0149 53.0098 23.2136 53.6548 23.1474C54.8029 23.0282 55.4091 22.2467 55.7445 21.2268C56.325 19.452 56.3637 17.6507 55.9638 15.8229C55.9251 15.6507 55.8735 15.4917 55.8219 15.3328C55.1511 13.5182 53.6032 12.9884 52.0037 14.048C51.8618 14.1407 51.7328 14.3791 51.7328 14.5513C51.707 15.8361 51.7328 17.1076 51.7328 18.3924Z" fill="#F05223"/>
<path d="M80.7175 11.1474L84.0327 10.7633C84.4197 10.7235 84.755 11.0282 84.755 11.4255V12.8427C84.755 12.8427 84.8582 12.9222 84.9098 12.9487C84.9356 12.8692 84.9485 12.7765 84.9872 12.7103C87.1414 10.0745 91.0758 10.3262 92.8946 13.2401C93.9395 14.9089 94.1717 16.7765 94.0685 18.7103C93.9653 20.4189 93.5396 22.0215 92.4689 23.399C90.5082 25.8891 87.0769 26.1407 84.9743 23.8891C84.9356 23.8493 84.8969 23.8229 84.8324 23.7699C84.8324 24.9487 84.7421 26.101 84.8582 27.2533L84.9356 28.048C85.0775 29.4652 83.994 30.6838 82.6137 30.6838H80.0596C79.8017 30.6838 79.6082 30.4321 79.6727 30.1672C79.8146 29.6374 79.9435 29.0944 80.0338 28.5513C80.1628 27.7566 80.2918 26.9619 80.2918 26.154C80.3176 22.6705 80.2918 19.1871 80.3047 15.7037C80.3047 14.9089 80.008 13.5182 79.763 12.5116C79.6082 11.8493 80.0467 11.2003 80.7046 11.1209L80.7175 11.1474ZM84.7679 18.3924C84.7679 19.6772 84.7679 20.9487 84.7679 22.2335C84.7679 22.3791 84.8324 22.6043 84.9356 22.6705C85.4645 23.0149 86.045 23.2136 86.69 23.1474C87.838 23.0282 88.4443 22.2467 88.7797 21.2268C89.3602 19.452 89.3989 17.6507 88.999 15.8229C88.9603 15.6507 88.9087 15.4917 88.8571 15.3328C88.1863 13.5182 86.6384 12.9884 85.0388 14.048C84.8969 14.1407 84.7679 14.3791 84.7679 14.5513C84.7421 15.8361 84.7679 17.1076 84.7679 18.3924Z" fill="#F05223"/>
<path d="M195.445 0.736328H131.025C128.988 0.736328 127.336 2.43231 127.336 4.52441V26.0873C127.336 28.1794 128.988 29.8754 131.025 29.8754H195.445C197.483 29.8754 199.134 28.1794 199.134 26.0873V4.52441C199.134 2.43231 197.483 0.736328 195.445 0.736328Z" fill="#F05223"/>
<path d="M138.818 9.62446H133.748V7.42578H146.312V9.62446H141.243V23.2403H138.83V9.62446H138.818Z" fill="white"/>
<path d="M148.504 7.42578H159.52V9.62446H150.877V13.9688H158.875V16.1278H150.877V21.0417H159.456V23.2403H148.504V7.42578Z" fill="white"/>
<path d="M161.301 15.3324C161.301 10.9218 163.842 7.16017 168.769 7.16017C172.433 7.16017 174.819 9.57076 175.335 12.8026H172.923C172.536 10.7761 171.001 9.37209 168.769 9.37209C165.325 9.37209 163.79 12.1006 163.79 15.3191C163.79 18.5377 165.325 21.2661 168.769 21.2661C171.169 21.2661 172.704 19.6237 173.026 17.3721H175.426C175.013 20.8158 172.601 23.478 168.769 23.478C163.855 23.478 161.301 19.7165 161.301 15.3059V15.3324Z" fill="white"/>
<path d="M190.57 13.5302V7.4375H188.196V14.007H188.184V14.709C189.525 14.7488 190.144 14.2322 190.57 13.5435V13.5302Z" fill="white"/>
<path d="M192.775 12.762C192.646 12.7223 192.504 12.6958 192.375 12.656C192.104 12.5898 192.014 12.8547 192.014 12.8547C191.743 13.5037 191.395 14.0733 190.995 14.5633C189.215 16.7885 186.867 16.8017 186.648 16.8017C184.158 16.9474 181.617 15.5832 180.611 12.7355C180.443 12.2587 180.366 11.7421 180.366 11.2388V7.4375H177.992V23.2521H180.366V16.8812C182.43 18.9209 185.538 19.5435 188.196 18.656V23.2653H190.569V17.3315C191.704 16.3647 192.569 14.9872 192.981 13.1858C193.033 12.8945 192.839 12.8017 192.775 12.7885V12.762Z" fill="white"/>
</g>
<defs>
<clipPath id="clip0_75_938">
<rect width="199" height="30" fill="white" transform="translate(0.134766 0.736328)"/>
</clipPath>
</defs>
</svg>
